<svg height="678" version="1.1" width="1148" xmlns="http://www.w3.org/2000/svg" style="overflow: hidden; position: relative;"><desc style="-webkit-tap-highlight-color: rgba(0, 0, 0, 0);">Created with Raphaël 2.0.1</desc><defs style="-webkit-tap-highlight-color: rgba(0, 0, 0, 0);"></defs><rect x="0" y="0" width="1148" height="678" r="0" rx="0" ry="0" fill="#f5f5f5" stroke="none" style="-webkit-tap-highlight-color: rgba(0, 0, 0, 0);"></rect><ellipse cx="623" cy="253" rx="126" ry="177.66" fill="none" stroke="#555555" transform="matrix(1,0,0,1,0,0)" stroke-width="1" opacity="0.2" style="-webkit-tap-highlight-color: rgba(0, 0, 0, 0); opacity: 0.2;"></ellipse><ellipse cx="772" cy="394" rx="130" ry="183.29999999999998" fill="none" stroke="#555555" transform="matrix(0.9511,0.309,-0.309,0.9511,159.5371,-219.2774)" stroke-width="1" opacity="0.2" style="-webkit-tap-highlight-color: rgba(0, 0, 0, 0); opacity: 0.2;"></ellipse><ellipse cx="536" cy="371" rx="124" ry="174.84" fill="none" stroke="#555555" transform="matrix(0.809,0.5878,-0.5878,0.809,320.4352,-244.1982)" stroke-width="1" opacity="0.2" style="-webkit-tap-highlight-color: rgba(0, 0, 0, 0); opacity: 0.2;"></ellipse><ellipse cx="643" cy="291" rx="123" ry="173.42999999999998" fill="none" stroke="#555555" transform="matrix(0.5878,0.809,-0.809,0.5878,500.478,-400.2434)" stroke-width="1" opacity="0.2" style="-webkit-tap-highlight-color: rgba(0, 0, 0, 0); opacity: 0.2;"></ellipse><ellipse cx="711" cy="388" rx="126" ry="177.66" fill="none" stroke="#555555" transform="matrix(0.309,0.9511,-0.9511,0.309,860.2988,-408.0998)" stroke-width="1" opacity="0.2" style="-webkit-tap-highlight-color: rgba(0, 0, 0, 0); opacity: 0.2;"></ellipse><ellipse cx="520" cy="368" rx="120" ry="169.2" fill="none" stroke="#555555" transform="matrix(0,1,-1,0,888,-152)" stroke-width="1" opacity="0.2" style="-webkit-tap-highlight-color: rgba(0, 0, 0, 0); opacity: 0.2;"></ellipse><ellipse cx="439" cy="318" rx="120" ry="169.2" fill="none" stroke="#555555" transform="matrix(-0.309,0.9511,-0.9511,-0.309,877.0944,-1.2464)" stroke-width="1" opacity="0.2" style="-webkit-tap-highlight-color: rgba(0, 0, 0, 0); opacity: 0.2;"></ellipse><ellipse cx="473" cy="405" rx="129" ry="181.89" fill="none" stroke="#555555" transform="matrix(-0.5878,0.809,-0.809,-0.5878,1078.6743,260.388)" stroke-width="1" opacity="0.2" style="-webkit-tap-highlight-color: rgba(0, 0, 0, 0); opacity: 0.2;"></ellipse><ellipse cx="793" cy="260" rx="124" ry="174.84" fill="none" stroke="#555555" transform="matrix(-0.809,0.5878,-0.5878,-0.809,1587.3746,4.2307)" stroke-width="1" opacity="0.2" style="-webkit-tap-highlight-color: rgba(0, 0, 0, 0); opacity: 0.2;"></ellipse><ellipse cx="434" cy="398" rx="123" ry="173.42999999999998" fill="none" stroke="#555555" transform="matrix(-0.9511,0.309,-0.309,-0.9511,969.7473,642.4071)" stroke-width="1" opacity="0.2" style="-webkit-tap-highlight-color: rgba(0, 0, 0, 0); opacity: 0.2;"></ellipse><ellipse cx="733" cy="262" rx="127" ry="179.07" fill="none" stroke="#555555" transform="matrix(-1,0,0,-1,1466,524)" stroke-width="1" opacity="0.2" style="-webkit-tap-highlight-color: rgba(0, 0, 0, 0); opacity: 0.2;"></ellipse><ellipse cx="563" cy="416" rx="128" ry="180.48" fill="none" stroke="#555555" transform="matrix(-0.9511,-0.309,0.309,-0.9511,969.8937,985.6161)" stroke-width="1" opacity="0.2" style="-webkit-tap-highlight-color: rgba(0, 0, 0, 0); opacity: 0.2;"></ellipse><ellipse cx="684" cy="368" rx="121" ry="170.60999999999999" fill="none" stroke="#555555" transform="matrix(-0.809,-0.5878,0.5878,-0.809,1021.0627,1067.7634)" stroke-width="1" opacity="0.2" style="-webkit-tap-highlight-color: rgba(0, 0, 0, 0); opacity: 0.2;"></ellipse><ellipse cx="323" cy="275" rx="120" ry="169.2" fill="none" stroke="#555555" transform="matrix(-0.5878,-0.809,0.809,-0.5878,290.375,697.9534)" stroke-width="1" opacity="0.2" style="-webkit-tap-highlight-color: rgba(0, 0, 0, 0); opacity: 0.2;"></ellipse><ellipse cx="450" cy="366" rx="122" ry="172.01999999999998" fill="none" stroke="#555555" transform="matrix(-0.309,-0.9511,0.9511,-0.309,240.971,907.0757)" stroke-width="1" opacity="0.2" style="-webkit-tap-highlight-color: rgba(0, 0, 0, 0); opacity: 0.2;"></ellipse><ellipse cx="620" cy="341" rx="128" ry="180.48" fill="none" stroke="#555555" transform="matrix(0,-1,1,0,279,961)" stroke-width="1" opacity="0.2" style="-webkit-tap-highlight-color: rgba(0, 0, 0, 0); opacity: 0.2;"></ellipse><ellipse cx="423" cy="423" rx="121" ry="170.60999999999999" fill="none" stroke="#555555" transform="matrix(0.309,-0.9511,0.9511,0.309,-110.0111,694.5827)" stroke-width="1" opacity="0.2" style="-webkit-tap-highlight-color: rgba(0, 0, 0, 0); opacity: 0.2;"></ellipse><ellipse cx="597" cy="263" rx="129" ry="181.89" fill="none" stroke="#555555" transform="matrix(0.5878,-0.809,0.809,0.5878,33.3207,591.3956)" stroke-width="1" opacity="0.2" style="-webkit-tap-highlight-color: rgba(0, 0, 0, 0); opacity: 0.2;"></ellipse><ellipse cx="542" cy="388" rx="121" ry="170.60999999999999" fill="none" stroke="#555555" transform="matrix(0.809,-0.5878,0.5878,0.809,-124.5479,392.681)" stroke-width="1" opacity="0.2" style="-webkit-tap-highlight-color: rgba(0, 0, 0, 0); opacity: 0.2;"></ellipse><ellipse cx="793" cy="393" rx="120" ry="169.2" fill="none" stroke="#555555" transform="matrix(0.9511,-0.309,0.309,0.9511,-82.6315,264.2853)" stroke-width="1" opacity="0.2" style="-webkit-tap-highlight-color: rgba(0, 0, 0, 0); opacity: 0.2;"></ellipse></svg>